<?xml version="1.0" encoding="utf-8"?>
<svg xmlns="http://www.w3.org/2000/svg" style="margin: auto; display: block; shape-rendering: auto;" width="280" height="56" preserveAspectRatio="xMidYMid">
<style type="text/css">
  text {
    text-anchor: middle; font-size: 32px; opacity: 0;fill: rgba(255, 255, 255, 0.8);animation: shimmer 2s linear infinite;
  }
  @keyframes shimmer {
    0% {
      opacity: 0.5; /* Start with lower opacity */
    }
    50% {
      opacity: 1; /* Peak opacity in the middle */
    }
    100% {
      opacity: 0.5; /* End with lower opacity */
    }
  }
</style>
<g style="transform-origin: 140px 28px; transform: scale(0.842105);">
<g transform="translate(140,28)">
  <g transform="translate(0,0)"><g class="path" style="opacity: 1; transform-origin: -117.46px -2.62644px; animation: 1s linear -0.612857s infinite normal forwards running blink-4a43355a-38b3-4583-98a5-4f2aaea6af09;"><path d="M3.34 0L3.34-25.92L19.23-25.92L19.23-22.99L6.54-22.99L6.54-14.71L18.32-14.71L18.32-11.86L6.54-11.86L6.54-2.93L19.61-2.93L19.61 0L3.34 0" fill="white" stroke="none" stroke-width="none" transform="translate(-128.93499755859375,10.333560379573271)" style="fill: rgba(0, 154, 136, 0.8);"></path></g><g class="path" style="opacity: 1; transform-origin: -97.66px 0.77856px; animation: 1s linear -0.565714s infinite normal forwards running blink-4a43355a-38b3-4583-98a5-4f2aaea6af09;"><path d="M21.93 0L29.18-10.03L22.12-19.11L25.69-19.11L31.27-12.05L36.56-19.11L39.98-19.11L33.33-10.15L40.62 0L37.05 0L31.24-8.09L25.35 0L21.93 0" fill="white" stroke="none" stroke-width="none" transform="translate(-128.93499755859375,10.333560379573271)" style="fill: rgba(0, 154, 136, 0.8);"></path></g><g class="path" style="opacity: 1; transform-origin: -77.275px 4.91856px; animation: 1s linear -0.518571s infinite normal forwards running blink-4a43355a-38b3-4583-98a5-4f2aaea6af09;"><path d="M43.74 8.66L43.74-14.71L43.74-14.71Q43.74-16.07 43.55-18.77L43.55-18.77L46.36-19.15L46.70-17.10L46.70-17.10Q47.46-17.75 48.28-18.26L48.28-18.26L48.28-18.26Q49.10-18.77 50.06-19.13L50.06-19.13L50.06-19.13Q51.03-19.49 52.14-19.49L52.14-19.49L52.14-19.49Q53.69-19.49 55.08-18.96L55.08-18.96L55.08-18.96Q56.47-18.43 57.51-17.25L57.51-17.25L57.51-17.25Q58.56-16.07 59.17-14.19L59.17-14.19L59.17-14.19Q59.77-12.31 59.77-9.58L59.77-9.58L59.77-9.58Q59.77-6.80 58.96-4.88L58.96-4.88L58.96-4.88Q58.14-2.96 56.83-1.77L56.83-1.77L56.83-1.77Q55.52-0.57 53.86-0.04L53.86-0.04L53.86-0.04Q52.21 0.49 50.50 0.49L50.50 0.49L50.50 0.49Q48.68 0.46 46.78 0.04L46.78 0.04L46.78 8.28L43.74 8.66zM50.50-2.17L50.50-2.17L50.50-2.17Q52.10-2.17 53.24-2.74L53.24-2.74L53.24-2.74Q54.38-3.31 55.12-4.31L55.12-4.31L55.12-4.31Q55.86-5.32 56.20-6.63L56.20-6.63L56.20-6.63Q56.54-7.94 56.54-9.42L56.54-9.42L56.54-9.42Q56.54-10.75 56.30-12.08L56.30-12.08L56.30-12.08Q56.05-13.41 55.50-14.46L55.50-14.46L55.50-14.46Q54.95-15.50 54.04-16.17L54.04-16.17L54.04-16.17Q53.12-16.83 51.79-16.83L51.79-16.83L51.79-16.83Q50.81-16.83 49.93-16.47L49.93-16.47L49.93-16.47Q49.06-16.11 48.28-15.60L48.28-15.60L48.28-15.60Q47.50-15.09 46.78-14.44L46.78-14.44L46.78-2.77L46.78-2.77Q47.20-2.62 47.71-2.49L47.71-2.49L47.71-2.49Q48.22-2.36 48.92-2.26L48.92-2.26L48.92-2.26Q49.63-2.17 50.50-2.17" fill="white" stroke="none" stroke-width="none" transform="translate(-128.93499755859375,10.333560379573271)" style="fill: rgba(0, 154, 136, 0.8);"></path></g><g class="path" style="opacity: 1; transform-origin: -56.545px 0.83356px; animation: 1s linear -0.471429s infinite normal forwards running blink-4a43355a-38b3-4583-98a5-4f2aaea6af09;"><path d="M66.39-9.46L66.39-9.46L66.39-9.46Q66.39-5.78 68.04-3.97L68.04-3.97L68.04-3.97Q69.69-2.17 72.50-2.17L72.50-2.17L72.50-2.17Q75.28-2.17 76.84-3.95L76.84-3.95L76.84-3.95Q78.39-5.74 78.39-9.31L78.39-9.31L78.39-9.31Q78.39-13.11 76.74-14.97L76.74-14.97L76.74-14.97Q75.09-16.83 72.24-16.83L72.24-16.83L72.24-16.83Q69.39-16.83 67.89-14.99L67.89-14.99L67.89-14.99Q66.39-13.15 66.39-9.46zM63.16-9.50L63.16-9.50L63.16-9.50Q63.16-12.39 64.07-14.31L64.07-14.31L64.07-14.31Q64.98-16.23 66.39-17.38L66.39-17.38L66.39-17.38Q67.79-18.54 69.41-19.02L69.41-19.02L69.41-19.02Q71.02-19.49 72.47-19.49L72.47-19.49L72.47-19.49Q73.83-19.49 75.45-19.06L75.45-19.06L75.45-19.06Q77.06-18.62 78.43-17.50L78.43-17.50L78.43-17.50Q79.80-16.38 80.71-14.50L80.71-14.50L80.71-14.50Q81.62-12.62 81.62-9.73L81.62-9.73L81.62-9.73Q81.62-6.73 80.69-4.75L80.69-4.75L80.69-4.75Q79.76-2.77 78.36-1.61L78.36-1.61L78.36-1.61Q76.95-0.46 75.32 0.02L75.32 0.02L75.32 0.02Q73.68 0.49 72.28 0.49L72.28 0.49L72.28 0.49Q70.83 0.49 69.24 0.04L69.24 0.04L69.24 0.04Q67.64-0.42 66.29-1.54L66.29-1.54L66.29-1.54Q64.94-2.66 64.05-4.60L64.05-4.60L64.05-4.60Q63.16-6.54 63.16-9.50" fill="white" stroke="none" stroke-width="none" transform="translate(-128.93499755859375,10.333560379573271)" style="fill: rgba(0, 154, 136, 0.8);"></path></g><g class="path" style="opacity: 1; transform-origin: -38.25px 0.585597px; animation: 1s linear -0.424286s infinite normal forwards running blink-4a43355a-38b3-4583-98a5-4f2aaea6af09;"><path d="M86.07 0L86.07-16.04L86.07-16.04Q86.07-16.91 85.88-18.77L85.88-18.77L88.69-19.15L89.00-16.38L89.03-16.38L89.03-16.38Q89.72-17.25 90.36-17.90L90.36-17.90L90.36-17.90Q91.01-18.54 91.71-19.02L91.71-19.02L91.71-19.02Q92.42-19.49 93.06-19.49L93.06-19.49L93.06-19.49Q93.94-19.53 95.49-19.30L95.49-19.30L94.81-16.38L94.81-16.38Q93.56-16.61 93.06-16.57L93.06-16.57L93.06-16.57Q92.42-16.57 91.69-15.96L91.69-15.96L91.69-15.96Q90.97-15.35 90.44-14.67L90.44-14.67L90.44-14.67Q89.76-13.83 89.11-12.77L89.11-12.77L89.11 0L86.07 0" fill="white" stroke="none" stroke-width="none" transform="translate(-128.93499755859375,10.333560379573271)" style="fill: rgba(0, 154, 136, 0.8);"></path></g><g class="path" style="opacity: 1; transform-origin: -25.935px -1.82644px; animation: 1s linear -0.377143s infinite normal forwards running blink-4a43355a-38b3-4583-98a5-4f2aaea6af09;"><path d="M100.24-24.43L103.28-24.81L103.28-19.11L108.79-19.11L108.79-16.64L103.28-16.64L103.28-6.50L103.28-6.50Q103.28-5.24 103.34-4.41L103.34-4.41L103.34-4.41Q103.40-3.57 103.59-3.08L103.59-3.08L103.59-3.08Q103.78-2.58 104.12-2.38L104.12-2.38L104.12-2.38Q104.46-2.17 104.99-2.17L104.99-2.17L104.99-2.17Q106.44-2.20 108.34-3.23L108.34-3.23L109.25-0.91L109.25-0.91Q108.00-0.08 106.91 0.21L106.91 0.21L106.91 0.21Q105.83 0.49 104.77 0.49L104.77 0.49L104.77 0.49Q102.26 0.49 101.25-0.93L101.25-0.93L101.25-0.93Q100.24-2.36 100.24-5.66L100.24-5.66L100.24-16.64L96.75-16.64L96.75-19.11L100.24-19.11L100.24-24.43" fill="white" stroke="none" stroke-width="none" transform="translate(-128.93499755859375,10.333560379573271)" style="fill: rgba(0, 154, 136, 0.8);"></path></g><g class="path" style="opacity: 1; transform-origin: 1.575px -2.55144px; animation: 1s linear -0.33s infinite normal forwards running blink-4a43355a-38b3-4583-98a5-4f2aaea6af09;"><path d="M140.30-25.08L139.61-22.27L139.61-22.27Q138.66-22.57 137.60-22.82L137.60-22.82L137.60-22.82Q136.53-23.07 135.26-23.24L135.26-23.24L135.26-23.24Q133.99-23.41 132.58-23.41L132.58-23.41L132.58-23.41Q130.30-23.41 128.71-22.42L128.71-22.42L128.71-22.42Q127.11-21.43 126.10-19.89L126.10-19.89L126.10-19.89Q125.10-18.35 124.64-16.45L124.64-16.45L124.64-16.45Q124.18-14.55 124.18-12.69L124.18-12.69L124.18-12.69Q124.18-10.34 124.85-8.42L124.85-8.42L124.85-8.42Q125.51-6.50 126.67-5.15L126.67-5.15L126.67-5.15Q127.83-3.80 129.37-3.08L129.37-3.08L129.37-3.08Q130.91-2.36 132.62-2.36L132.62-2.36L132.62-2.36Q134.22-2.36 135.55-2.53L135.55-2.53L135.55-2.53Q136.88-2.70 137.83-2.89L137.83-2.89L137.83-2.89Q138.93-3.12 139.80-3.42L139.80-3.42L140.45-0.72L140.45-0.72Q139.42-0.38 138.17-0.11L138.17-0.11L138.17-0.11Q137.10 0.11 135.70 0.30L135.70 0.30L135.70 0.30Q134.29 0.49 132.62 0.49L132.62 0.49L132.62 0.49Q129.62 0.49 127.36-0.49L127.36-0.49L127.36-0.49Q125.10-1.48 123.59-3.25L123.59-3.25L123.59-3.25Q122.09-5.02 121.33-7.43L121.33-7.43L121.33-7.43Q120.57-9.84 120.57-12.73L120.57-12.73L120.57-12.73Q120.57-16.04 121.49-18.56L121.49-18.56L121.49-18.56Q122.40-21.09 123.99-22.80L123.99-22.80L123.99-22.80Q125.59-24.51 127.79-25.38L127.79-25.38L127.79-25.38Q130.00-26.26 132.62-26.26L132.62-26.26L132.62-26.26Q134.22-26.26 135.60-26.09L135.60-26.09L135.60-26.09Q136.99-25.92 138.15-25.65L138.15-25.65L138.15-25.65Q139.31-25.38 140.30-25.08L140.30-25.08" fill="white" stroke="none" stroke-width="none" transform="translate(-128.93499755859375,10.333560379573271)" style="fill: rgba(0, 154, 136, 0.8);"></path></g><g class="path" style="opacity: 1; transform-origin: 22.8px 0.83356px; animation: 1s linear -0.282857s infinite normal forwards running blink-4a43355a-38b3-4583-98a5-4f2aaea6af09;"><path d="M145.73-9.46L145.73-9.46L145.73-9.46Q145.73-5.78 147.38-3.97L147.38-3.97L147.38-3.97Q149.04-2.17 151.85-2.17L151.85-2.17L151.85-2.17Q154.62-2.17 156.18-3.95L156.18-3.95L156.18-3.95Q157.74-5.74 157.74-9.31L157.74-9.31L157.74-9.31Q157.74-13.11 156.08-14.97L156.08-14.97L156.08-14.97Q154.43-16.83 151.58-16.83L151.58-16.83L151.58-16.83Q148.73-16.83 147.23-14.99L147.23-14.99L147.23-14.99Q145.73-13.15 145.73-9.46zM142.50-9.50L142.50-9.50L142.50-9.50Q142.50-12.39 143.41-14.31L143.41-14.31L143.41-14.31Q144.32-16.23 145.73-17.38L145.73-17.38L145.73-17.38Q147.14-18.54 148.75-19.02L148.75-19.02L148.75-19.02Q150.37-19.49 151.81-19.49L151.81-19.49L151.81-19.49Q153.18-19.49 154.79-19.06L154.79-19.06L154.79-19.06Q156.41-18.62 157.78-17.50L157.78-17.50L157.78-17.50Q159.14-16.38 160.06-14.50L160.06-14.50L160.06-14.50Q160.97-12.62 160.97-9.73L160.97-9.73L160.97-9.73Q160.97-6.73 160.04-4.75L160.04-4.75L160.04-4.75Q159.11-2.77 157.70-1.61L157.70-1.61L157.70-1.61Q156.29-0.46 154.66 0.02L154.66 0.02L154.66 0.02Q153.03 0.49 151.62 0.49L151.62 0.49L151.62 0.49Q150.18 0.49 148.58 0.04L148.58 0.04L148.58 0.04Q146.98-0.42 145.63-1.54L145.63-1.54L145.63-1.54Q144.29-2.66 143.39-4.60L143.39-4.60L143.39-4.60Q142.50-6.54 142.50-9.50" fill="white" stroke="none" stroke-width="none" transform="translate(-128.93499755859375,10.333560379573271)" style="fill: rgba(0, 154, 136, 0.8);"></path></g><g class="path" style="opacity: 1; transform-origin: 44.075px 0.58856px; animation: 1s linear -0.235714s infinite normal forwards running blink-4a43355a-38b3-4583-98a5-4f2aaea6af09;"><path d="M165.41 0L165.41-15.31L165.41-15.31Q165.45-16.11 165.22-18.77L165.22-18.77L168.04-19.15L168.45-16.72L168.45-16.72Q169.59-17.48 170.71-18.05L170.71-18.05L170.71-18.05Q171.84-18.62 173.01-19.06L173.01-19.06L173.01-19.06Q174.19-19.49 175.29-19.49L175.29-19.49L175.29-19.49Q176.85-19.49 177.90-19.13L177.90-19.13L177.90-19.13Q178.94-18.77 179.59-17.94L179.59-17.94L179.59-17.94Q180.23-17.10 180.52-15.73L180.52-15.73L180.52-15.73Q180.80-14.36 180.80-12.31L180.80-12.31L180.80 0L177.76 0L177.76-11.97L177.76-11.97Q177.76-13.11 177.73-14.00L177.73-14.00L177.73-14.00Q177.69-14.90 177.40-15.52L177.40-15.52L177.40-15.52Q177.12-16.15 176.53-16.49L176.53-16.49L176.53-16.49Q175.94-16.83 174.88-16.83L174.88-16.83L174.88-16.83Q173.89-16.83 172.79-16.40L172.79-16.40L172.79-16.40Q171.68-15.96 170.62-15.39L170.62-15.39L170.62-15.39Q169.56-14.82 168.45-14.06L168.45-14.06L168.45 0L165.41 0" fill="white" stroke="none" stroke-width="none" transform="translate(-128.93499755859375,10.333560379573271)" style="fill: rgba(0, 154, 136, 0.8);"></path></g><g class="path" style="opacity: 1; transform-origin: 61.385px -1.82644px; animation: 1s linear -0.188571s infinite normal forwards running blink-4a43355a-38b3-4583-98a5-4f2aaea6af09;"><path d="M187.57-24.43L190.61-24.81L190.61-19.11L196.12-19.11L196.12-16.64L190.61-16.64L190.61-6.50L190.61-6.50Q190.61-5.24 190.66-4.41L190.66-4.41L190.66-4.41Q190.72-3.57 190.91-3.08L190.91-3.08L190.91-3.08Q191.10-2.58 191.44-2.38L191.44-2.38L191.44-2.38Q191.79-2.17 192.32-2.17L192.32-2.17L192.32-2.17Q193.76-2.20 195.66-3.23L195.66-3.23L196.57-0.91L196.57-0.91Q195.32-0.08 194.24 0.21L194.24 0.21L194.24 0.21Q193.15 0.49 192.09 0.49L192.09 0.49L192.09 0.49Q189.58 0.49 188.57-0.93L188.57-0.93L188.57-0.93Q187.57-2.36 187.57-5.66L187.57-5.66L187.57-16.64L184.07-16.64L184.07-19.11L187.57-19.11L187.57-24.43" fill="white" stroke="none" stroke-width="none" transform="translate(-128.93499755859375,10.333560379573271)" style="fill: rgba(0, 154, 136, 0.8);"></path></g><g class="path" style="opacity: 1; transform-origin: 77.215px 0.83356px; animation: 1s linear -0.141429s infinite normal forwards running blink-4a43355a-38b3-4583-98a5-4f2aaea6af09;"><path d="M210.63-4.45L210.63-8.78L210.63-8.78Q209.87-8.74 209.19-8.70L209.19-8.70L209.19-8.70Q208.51-8.66 207.84-8.61L207.84-8.61L207.84-8.61Q207.18-8.55 206.64-8.47L206.64-8.47L206.64-8.47Q203.91-8.13 202.77-7.28L202.77-7.28L202.77-7.28Q201.63-6.42 201.63-4.83L201.63-4.83L201.63-4.83Q201.63-3.50 202.44-2.83L202.44-2.83L202.44-2.83Q203.26-2.17 204.59-2.17L204.59-2.17L204.59-2.17Q206.42-2.17 207.84-2.79L207.84-2.79L207.84-2.79Q209.27-3.42 210.63-4.45L210.63-4.45zM210.98 0.30L210.60-1.79L210.60-1.79Q208.81-0.76 207.27-0.13L207.27-0.13L207.27-0.13Q205.73 0.49 203.95 0.49L203.95 0.49L203.95 0.49Q201.40 0.49 199.90-0.74L199.90-0.74L199.90-0.74Q198.40-1.98 198.40-4.83L198.40-4.83L198.40-4.83Q198.40-6.31 199.16-7.41L199.16-7.41L199.16-7.41Q199.92-8.51 201.15-9.25L201.15-9.25L201.15-9.25Q202.39-9.99 203.95-10.41L203.95-10.41L203.95-10.41Q205.50-10.83 207.14-10.94L207.14-10.94L207.14-10.94Q207.82-11.02 208.92-11.08L208.92-11.08L208.92-11.08Q210.03-11.13 210.63-11.17L210.63-11.17L210.63-11.17Q210.63-12.50 210.56-13.55L210.56-13.55L210.56-13.55Q210.48-14.59 210.10-15.33L210.10-15.33L210.10-15.33Q209.72-16.07 208.98-16.45L208.98-16.45L208.98-16.45Q208.24-16.83 206.87-16.83L206.87-16.83L206.87-16.83Q205.77-16.83 204.74-16.70L204.74-16.70L204.74-16.70Q203.72-16.57 202.92-16.42L202.92-16.42L202.92-16.42Q201.97-16.23 201.17-16.00L201.17-16.00L200.56-18.62L200.56-18.62Q201.51-18.85 202.62-19.04L202.62-19.04L202.62-19.04Q203.57-19.23 204.82-19.36L204.82-19.36L204.82-19.36Q206.07-19.49 207.52-19.49L207.52-19.49L207.52-19.49Q209.46-19.49 210.65-18.92L210.65-18.92L210.65-18.92Q211.85-18.35 212.51-17.38L212.51-17.38L212.51-17.38Q213.18-16.42 213.43-15.18L213.43-15.18L213.43-15.18Q213.67-13.95 213.67-12.58L213.67-12.58L213.67-3.46L213.67-3.46Q213.67-2.93 213.69-2.34L213.69-2.34L213.69-2.34Q213.71-1.75 213.77-1.18L213.77-1.18L213.77-1.18Q213.83-0.61 213.90 0L213.90 0L210.98 0.30" fill="white" stroke="none" stroke-width="none" transform="translate(-128.93499755859375,10.333560379573271)" style="fill: rgba(0, 154, 136, 0.8);"></path></g><g class="path" style="opacity: 1; transform-origin: 96.01px 0.83356px; animation: 1s linear -0.0942857s infinite normal forwards running blink-4a43355a-38b3-4583-98a5-4f2aaea6af09;"><path d="M231.50-18.89L230.89-16.34L230.89-16.34Q230.24-16.49 229.10-16.66L229.10-16.66L229.10-16.66Q227.96-16.83 226.78-16.83L226.78-16.83L226.78-16.83Q225.07-16.83 223.99-16.15L223.99-16.15L223.99-16.15Q222.91-15.47 222.30-14.38L222.30-14.38L222.30-14.38Q221.69-13.30 221.46-11.99L221.46-11.99L221.46-11.99Q221.24-10.68 221.24-9.42L221.24-9.42L221.24-9.42Q221.24-7.49 221.73-6.10L221.73-6.10L221.73-6.10Q222.22-4.71 223.04-3.84L223.04-3.84L223.04-3.84Q223.86-2.96 224.92-2.56L224.92-2.56L224.92-2.56Q225.99-2.17 227.16-2.17L227.16-2.17L227.16-2.17Q227.96-2.17 228.70-2.26L228.70-2.26L228.70-2.26Q229.44-2.36 230.07-2.49L230.07-2.49L230.07-2.49Q230.70-2.62 231.27-2.81L231.27-2.81L231.88-0.27L231.88-0.27Q231.08-0.04 230.39 0.11L230.39 0.11L230.39 0.11Q229.71 0.27 228.78 0.38L228.78 0.38L228.78 0.38Q227.85 0.49 226.78 0.49L226.78 0.49L226.78 0.49Q224.69 0.49 223.06-0.04L223.06-0.04L223.06-0.04Q221.43-0.57 220.31-1.75L220.31-1.75L220.31-1.75Q219.18-2.93 218.59-4.83L218.59-4.83L218.59-4.83Q218.01-6.73 218.01-9.46L218.01-9.46L218.01-9.46Q218.01-12.12 218.75-14.04L218.75-14.04L218.75-14.04Q219.49-15.96 220.70-17.16L220.70-17.16L220.70-17.16Q221.92-18.35 223.50-18.92L223.50-18.92L223.50-18.92Q225.07-19.49 226.78-19.49L226.78-19.49L226.78-19.49Q227.70-19.49 228.55-19.40L228.55-19.40L228.55-19.40Q229.41-19.30 230.05-19.19L230.05-19.19L230.05-19.19Q230.81-19.04 231.50-18.89L231.50-18.89" fill="white" stroke="none" stroke-width="none" transform="translate(-128.93499755859375,10.333560379573271)" style="fill: rgba(0, 154, 136, 0.8);"></path></g><g class="path" style="opacity: 1; transform-origin: 110.865px -1.82644px; animation: 1s linear -0.0471429s infinite normal forwards running blink-4a43355a-38b3-4583-98a5-4f2aaea6af09;"><path d="M237.04-24.43L240.08-24.81L240.08-19.11L245.59-19.11L245.59-16.64L240.08-16.64L240.08-6.50L240.08-6.50Q240.08-5.24 240.14-4.41L240.14-4.41L240.14-4.41Q240.20-3.57 240.39-3.08L240.39-3.08L240.39-3.08Q240.58-2.58 240.92-2.38L240.92-2.38L240.92-2.38Q241.26-2.17 241.79-2.17L241.79-2.17L241.79-2.17Q243.24-2.20 245.14-3.23L245.14-3.23L246.05-0.91L246.05-0.91Q244.80-0.08 243.71 0.21L243.71 0.21L243.71 0.21Q242.63 0.49 241.57 0.49L241.57 0.49L241.57 0.49Q239.06 0.49 238.05-0.93L238.05-0.93L238.05-0.93Q237.04-2.36 237.04-5.66L237.04-5.66L237.04-16.64L233.55-16.64L233.55-19.11L237.04-19.11L237.04-24.43" fill="white" stroke="none" stroke-width="none" transform="translate(-128.93499755859375,10.333560379573271)" style="fill: rgba(0, 154, 136, 0.8);"></path></g><g class="path" style="opacity: 1; transform-origin: 125.815px 0.83356px; animation: 1s linear 0s infinite normal forwards running blink-4a43355a-38b3-4583-98a5-4f2aaea6af09;"><path d="M260.34-18.70L259.81-16.00L259.81-16.00Q258.21-16.49 256.97-16.66L256.97-16.66L256.97-16.66Q255.74-16.83 254.71-16.83L254.71-16.83L254.71-16.83Q253.38-16.83 252.49-16.19L252.49-16.19L252.49-16.19Q251.60-15.54 251.60-14.52L251.60-14.52L251.60-14.52Q251.64-13.60 252.40-12.96L252.40-12.96L252.40-12.96Q253.16-12.31 254.16-11.80L254.16-11.80L254.16-11.80Q255.17-11.29 256.40-10.68L256.40-10.68L256.40-10.68Q257.64-10.07 258.72-9.31L258.72-9.31L258.72-9.31Q259.81-8.55 260.49-7.49L260.49-7.49L260.49-7.49Q261.17-6.42 261.21-4.94L261.21-4.94L261.21-4.94Q261.17-3.34 260.51-2.30L260.51-2.30L260.51-2.30Q259.84-1.25 258.80-0.63L258.80-0.63L258.80-0.63Q257.75 0 256.54 0.25L256.54 0.25L256.54 0.25Q255.32 0.49 254.26 0.49L254.26 0.49L254.26 0.49Q252.89 0.49 251.43 0.34L251.43 0.34L251.43 0.34Q249.96 0.19 248.29-0.30L248.29-0.30L248.86-3.04L248.86-3.04Q250.57-2.58 251.98-2.38L251.98-2.38L251.98-2.38Q253.38-2.17 254.30-2.17L254.30-2.17L254.30-2.17Q254.98-2.17 255.64-2.32L255.64-2.32L255.64-2.32Q256.31-2.47 256.84-2.75L256.84-2.75L256.84-2.75Q257.37-3.04 257.70-3.50L257.70-3.50L257.70-3.50Q258.02-3.95 258.02-4.52L258.02-4.52L258.02-4.52Q257.98-5.59 257.30-6.33L257.30-6.33L257.30-6.33Q256.61-7.07 255.53-7.66L255.53-7.66L255.53-7.66Q254.45-8.25 253.21-8.83L253.21-8.83L253.21-8.83Q251.98-9.42 250.89-10.20L250.89-10.20L250.89-10.20Q249.81-10.98 249.09-12.06L249.09-12.06L249.09-12.06Q248.37-13.15 248.37-14.74L248.37-14.74L248.37-14.74Q248.37-15.88 248.96-16.78L248.96-16.78L248.96-16.78Q249.55-17.67 250.48-18.26L250.48-18.26L250.48-18.26Q251.41-18.85 252.53-19.17L252.53-19.17L252.53-19.17Q253.65-19.49 254.71-19.49L254.71-19.49L254.71-19.49Q255.82-19.49 257.18-19.32L257.18-19.32L257.18-19.32Q258.55-19.15 260.34-18.70L260.34-18.70" fill="white" stroke="none" stroke-width="none" transform="translate(-128.93499755859375,10.333560379573271)" style="fill: rgba(0, 154, 136, 0.8);"></path></g></g>
</g>
</g>
<style id="blink-4a43355a-38b3-4583-98a5-4f2aaea6af09" data-anikit="">@keyframes blink-4a43355a-38b3-4583-98a5-4f2aaea6af09 {
  0% { opacity: 1; }
  46% { opacity: 1; }
  138% { opacity: 0; }
  8% { opacity: 0; }
  100% { opacity: 1; }
}</style></svg>